<?xml version="1.0" encoding="UTF-8"?>
<svg id="_图层_2" data-name="图层 2" xmlns="http://www.w3.org/2000/svg" viewBox="0 0 1472.44 1322.2">
  <defs>
    <style>
      .cls-1 {
        fill: #731f1b;
      }

      .cls-2 {
        fill: #bf4a2d;
      }

      .cls-3 {
        fill: #e0b960;
      }

      .cls-4 {
        fill: #ece3bd;
      }

      .cls-5 {
        fill: #beb795;
      }
    </style>
  </defs>
  <g id="_元素" data-name="元素">
    <path class="cls-2" d="M280.31,823.45c-53.71,37.34-68.69,139.2-68.69,139.2,0,0-115.35,121.34-131.82,208.22-16.48,86.88,202.23,100.37,286.12,86.88,0,0,130.33,100.37,268.14,44.94,0,0,455.4,74.9,639.65-68.91,0,0,119.84-59.92,133.32-92.88,0,0-38.95-121.34-97.37-152.8,0,0-30.34-145.22-118.53-185.71-88.19-40.49-910.82,21.04-910.82,21.04Z"/>
    <path class="cls-4" d="M490.52,45.56c-20.29,16.12-42.44,77.53-46.21,103.17-10.42,70.81-42.82,122.97-51.83,193.97-9.01,71,10.05,153.64,72.36,188.85-48.2,21.57-84.02,68.73-91.87,120.95-39.5-11.48-84.92-3.8-116.16,22.96-31.24,26.76-45.77,72.75-32.23,111.58,13.54,38.84,70.33,41.75,110.87,34.8-39.14,49.97-24.42,136.44,21.97,179.76,120.84,112.85,373.8,133.25,483.12,118.02,109.32-15.23,219.95-53.41,290.85-138,70.9-84.59,69.13-178.84,43.94-299.6-4-19.16-11.01-45.34-10.99-64.91,.05-33.48,35.54-100.94,57.92-125.83,35.28-39.24,77.73-66.08,77.9-118.84,.17-52.77-27.44-112.8-73.9-137.82-46.46-25.02-128.75-1.48-160,41.03,1.42,3.83-55.16-148.64-83.85-225.98-7-18.85-16.72-40.26-36.26-45.03-16.94-4.14-34.22,6.68-45.24,20.19-11.02,13.51-30.08,49.53-41.17,62.99-25.74,31.24-89.26,15.59-127.37,20.77-38.2,5.19-51.28,10.95-89.34,13.19-64.44,3.79-99.87-118.02-152.52-76.2Z"/>
    <path class="cls-1" d="M1234.2,1140.36c2.99-2.49,6.2-4.67,9.46-6.79,3.26-2.13,6.64-4.04,10.06-5.91,6.86-3.68,14-6.86,21.34-9.59,14.67-5.45,30.24-8.87,46.1-9.79,15.83-.82,32.07,1.02,47.08,6.52,15.04,5.34,28.58,14.48,38.8,26.11-13.43-7.77-27.12-13.84-41.51-17.09-14.3-3.44-29.03-4.3-43.72-3.58-14.7,.85-29.42,3.23-43.99,6.81-14.59,3.55-29.07,8.03-43.61,13.31Z"/>
    <path class="cls-1" d="M773.37,1243.86c17.07-10.72,34.83-20.27,52.73-29.52,8.99-4.56,18.05-8.98,27.16-13.31,9.1-4.34,18.33-8.41,27.57-12.46,37.02-16.05,75.04-30.02,114.01-40.95,19.49-5.45,39.2-10.18,59.14-13.87,9.97-1.83,19.97-3.5,30.04-4.75,10.06-1.3,20.16-2.35,30.3-2.94,10.13-.6,20.28-1.02,30.44-.87,10.15,.18,20.3,.71,30.4,1.73,20.16,2.18,40.18,6.3,59.04,13.43-19.62-4.57-39.51-7.05-59.44-7.56-19.92-.65-39.84,.46-59.62,2.59-39.58,4.44-78.62,13.03-117.05,23.78-38.43,10.8-76.32,23.72-113.73,38.04-9.37,3.55-18.65,7.3-27.97,11-9.31,3.71-18.58,7.55-27.82,11.45-18.52,7.73-36.89,15.84-55.2,24.22Z"/>
    <path class="cls-1" d="M625.29,1261.84c9.54-9.31,20.9-16.55,32.86-22.49,12-5.9,24.9-10.21,38.26-12.59,13.35-2.3,27.25-2.54,40.65,.17,6.7,1.26,13.2,3.49,19.36,6.24l4.54,2.24c1.48,.81,2.91,1.7,4.33,2.58,2.9,1.66,5.5,3.84,8.1,5.86-6.39-1.94-12.52-3.91-18.82-5.09-6.27-1.2-12.48-2.21-18.76-2.49-12.5-.82-24.98,.2-37.34,2.29-12.35,2.19-24.61,5.42-36.75,9.47-12.16,4.02-24.2,8.67-36.42,13.8Z"/>
    <path class="cls-1" d="M81.54,1194.79c20.79-12.17,42.87-22.09,65.38-30.87,11.3-4.29,22.76-8.17,34.34-11.73l8.72-2.56c2.92-.82,5.86-1.54,8.79-2.32l4.4-1.15,4.43-1.03,8.87-2.04c23.75-5.1,48.05-8.16,72.54-8.32,12.24-.23,24.51,.74,36.71,2.22l9.13,1.37,2.28,.34,2.26,.47,4.53,.95,4.53,.95,2.26,.48c.75,.18,1.49,.4,2.24,.6l8.93,2.45c1.49,.39,2.97,.83,4.42,1.38l4.37,1.55,4.37,1.55c1.46,.51,2.92,1.02,4.33,1.67,5.66,2.51,11.44,4.77,16.84,7.83,2.72,1.44,5.53,2.88,8.18,4.33l7.83,4.37,15.65,8.77c20.97,11.5,42.31,22.32,63.85,32.76l16.27,7.58c2.71,1.28,5.43,2.51,8.18,3.7l8.2,3.65c5.44,2.5,10.97,4.8,16.48,7.14,5.5,2.39,11.07,4.58,16.62,6.83,11.08,4.57,22.32,8.75,33.59,12.85l8.48,3.01,8.53,2.87c5.7,1.89,11.42,3.74,17.2,5.38-11.86-2.07-23.59-4.94-35.22-8.1-11.63-3.18-23.17-6.71-34.62-10.5-5.72-1.92-11.44-3.85-17.09-5.94-5.67-2.06-11.36-4.07-16.98-6.29-11.3-4.25-22.4-9-33.53-13.68l-16.56-7.34c-2.77-1.2-5.49-2.51-8.21-3.82l-8.17-3.92-8.17-3.92c-2.73-1.3-5.39-2.72-8.09-4.07l-16.15-8.21c-5.34-2.81-10.61-5.77-15.91-8.66l-7.94-4.36c-2.63-1.42-5.19-2.69-7.79-4.04-5.09-2.84-10.56-4.91-15.89-7.24-1.32-.61-2.71-1.07-4.09-1.54l-4.13-1.43c-2.77-.91-5.47-2.02-8.31-2.72l-8.43-2.39c-.7-.19-1.4-.41-2.11-.59l-2.14-.46-4.29-.93-4.29-.93-2.15-.46-2.17-.34-8.69-1.37-2.17-.34-2.19-.22-4.38-.45-4.38-.45-2.19-.23-2.2-.12c-5.88-.31-11.75-.69-17.65-.68-11.79-.28-23.62,.39-35.42,1.41l-8.84,.92c-2.95,.29-5.88,.8-8.83,1.14-5.9,.68-11.75,1.75-17.62,2.67-23.41,4.23-46.61,10.03-69.43,17.21-22.83,7.16-45.33,15.54-67.3,25.34Z"/>
    <path class="cls-3" d="M814.03,261.97c100.12,51.41,182.93,35.2,246.19-2.61-15.17-40.89-55.16-148.66-77.8-209.68-7-18.85-16.72-40.26-36.26-45.03-16.94-4.14-34.22,6.68-45.24,20.19-11.02,13.51-30.08,49.53-41.17,62.99-25.74,31.24-89.26,15.59-127.37,20.77-20.22,2.75-33.4,5.65-46.97,8.11,5.86,49.17,40.74,100.15,128.61,145.27Z"/>
    <path class="cls-2" d="M514.22,73.83c-32.18,1.34-74.9,126.83-22.97,133.82,51.93,6.99,111.85-20.97,102.99-64.32-5.11-25.01-56.06-70.5-80.02-69.5Z"/>
    <path class="cls-2" d="M937.65,31.89c-32.18,1.34-93.97,96.27-45.94,117.23,54.93,23.97,102.73,9.01,93.88-34.34-5.11-25.01-23.97-83.89-47.94-82.89Z"/>
    <path class="cls-5" d="M1175.34,682.02c-1.7-7.02-3.56-13.99-5.32-21-1.73-7.01-3.38-14.06-4.73-21.19-1.36-7.12-2.4-14.34-2.65-21.7-.09-1.84,.1-3.7,.14-5.56,.06-.93,.04-1.87,.16-2.78l.38-2.74c.29-1.82,.43-3.68,.84-5.46l1.15-5.38c.33-1.81,.9-3.55,1.37-5.31,.5-1.76,.96-3.53,1.49-5.28,1.17-3.45,2.2-6.96,3.49-10.37,1.29-3.4,2.48-6.86,3.91-10.2,1.38-3.37,2.74-6.75,4.26-10.05,5.9-13.31,12.67-26.21,20.16-38.73,1.87-3.13,3.86-6.2,5.81-9.29l3.09-4.55,1.55-2.27,1.64-2.22c1.11-1.48,2.16-2.98,3.34-4.43l3.58-4.3c2.41-2.78,4.88-5.44,7.37-8.11,9.97-10.62,20.43-20.63,30.32-30.95,4.93-5.18,9.76-10.4,14.25-15.83,4.47-5.45,8.59-11.12,12.15-17.07,3.53-5.97,6.43-12.24,8.56-18.76,2.09-6.53,3.34-13.29,3.8-20.14,.18-1.71,.14-3.43,.22-5.15,.04-1.72-.07-3.49-.1-5.24l-.14-5.25-.47-5.24c-.18-1.75-.27-3.5-.51-5.24l-.79-5.21c-.44-3.49-1.23-6.92-1.96-10.37-3.02-13.75-7.75-27.13-13.92-39.77-6.18-12.64-13.92-24.54-23.3-34.97-9.39-10.37-20.53-19.25-32.82-25.63-12.36-6.12-26.49-8.6-40.56-8.92-14.12-.3-28.34,1.64-42.12,5.22-13.8,3.55-27.21,8.82-39.67,15.86-6.23,3.52-12.21,7.51-17.78,12.02-5.59,4.49-10.78,9.54-15.26,15.21,8.25-11.91,19.49-21.58,31.76-29.37,12.3-7.81,25.79-13.71,39.76-17.97,14-4.18,28.58-6.67,43.34-6.87,14.71-.15,29.78,2.13,43.55,8.48,6.81,3.28,13.08,7.24,19.08,11.68,1.57,1.02,2.91,2.32,4.34,3.5l4.25,3.62c2.72,2.53,5.28,5.22,7.93,7.83,10.09,10.9,18.42,23.31,25.11,36.49,6.67,13.2,11.61,27.24,14.88,41.65,.79,3.61,1.63,7.22,2.11,10.89l.85,5.48c.27,1.83,.38,3.68,.57,5.53l.52,5.53,.18,5.56c.04,1.86,.16,3.7,.13,5.58-.08,1.89-.02,3.78-.22,5.66-.54,7.54-1.97,15.06-4.32,22.27-2.39,7.2-5.62,14.08-9.47,20.51-7.77,12.86-17.64,23.97-27.85,34.33-10.23,10.36-20.78,20.17-30.72,30.46-2.47,2.57-4.95,5.17-7.31,7.8l-3.4,3.97c-1.12,1.34-2.17,2.78-3.26,4.15l-1.63,2.09-1.55,2.16-3.1,4.33c-1.97,2.96-3.99,5.9-5.89,8.92-7.65,12.06-14.52,24.65-20.78,37.52-1.61,3.2-3.05,6.47-4.52,9.73-1.52,3.24-2.79,6.58-4.17,9.88-1.38,3.3-2.49,6.69-3.75,10.03-.58,1.69-1.08,3.39-1.62,5.09-.51,1.7-1.13,3.39-1.53,5.11l-1.33,5.15c-.48,1.72-.67,3.46-1.03,5.2l-.48,2.61c-.16,.87-.17,1.74-.26,2.61-.11,1.75-.38,3.47-.36,5.25-.08,7.08,.67,14.23,1.63,21.34,.96,7.12,2.26,14.21,3.6,21.3,1.32,7.09,2.74,14.18,4,21.28Z"/>
    <path class="cls-5" d="M335.45,821.84c-8.48,11.26-14.29,24.32-17.66,37.88-3.37,13.59-4.35,27.69-3.47,41.62,1,13.92,3.71,27.73,8.31,40.88,2.27,6.58,4.96,13.01,8.05,19.23,3.14,6.2,6.69,12.17,10.66,17.85,3.98,5.66,8.3,11.09,13.14,16,2.44,2.44,4.89,4.83,7.59,7.08l7.91,6.84c10.9,8.69,22.12,17.02,34.08,24.23,5.84,3.82,12.02,7.09,18.06,10.58,1.5,.89,3.05,1.7,4.61,2.49l4.66,2.4c3.12,1.57,6.17,3.27,9.34,4.73l9.49,4.44c1.59,.73,3.15,1.51,4.76,2.2l4.82,2.05,9.64,4.11,9.77,3.8c13.02,5.1,26.32,9.48,39.65,13.69,6.73,1.91,13.4,4.02,20.16,5.82,6.77,1.78,13.5,3.68,20.33,5.25,27.21,6.59,54.75,11.86,82.5,15.66,27.75,3.79,55.65,6.64,83.62,7.92,27.96,1.35,56.01,1.45,83.86-.4,3.48-.27,6.96-.45,10.43-.78l10.4-1.01,10.35-1.28,10.38-1.51c13.83-2.11,27.6-4.59,41.28-7.49,27.35-5.79,54.33-13.32,80.53-22.92,26.2-9.59,51.6-21.38,75.42-35.83,23.79-14.46,46-31.55,65.54-51.37,19.52-19.81,36.49-42.26,48.97-67.11,6.27-12.4,11.44-25.36,15.46-38.69,4.01-13.34,6.77-27.05,8.62-40.88,3.75-27.7,3.4-55.91,.92-83.86-1.24-13.99-3.02-27.93-5.13-41.83-2.07-13.91-4.5-27.77-7.14-41.59,3.09,13.73,5.96,27.51,8.48,41.37,2.48,13.86,4.58,27.8,6.16,41.82,3.17,28,4.21,56.42,1.09,84.63-1.58,14.09-4.19,28.09-8.03,41.79-3.87,13.68-8.93,27.05-15.14,39.87-12.36,25.71-29.56,48.88-49.23,69.39-9.86,10.26-20.42,19.84-31.54,28.72-11.13,8.87-22.82,17.01-34.92,24.48-24.2,14.94-50.01,27.14-76.57,37.09-26.59,9.95-53.97,17.57-81.65,23.53-13.85,2.97-27.78,5.52-41.76,7.69l-10.5,1.56-10.59,1.34-10.61,1.06c-3.54,.34-7.08,.54-10.61,.81-28.32,1.81-56.65,1.63-84.89,.2-7.07-.29-14.11-.87-21.17-1.3-7.04-.63-14.1-1.09-21.12-1.85l-10.55-1.07-10.53-1.24c-7.03-.78-14.02-1.84-21.02-2.81-27.98-4.04-55.75-9.57-83.19-16.44-13.73-3.39-27.32-7.35-40.84-11.53-13.44-4.43-26.84-9.02-39.96-14.35-26.27-10.53-51.94-22.87-75.74-38.36-12.03-7.53-23.31-16.21-34.25-25.24l-7.93-7.11c-2.68-2.31-5.22-4.87-7.71-7.45-4.94-5.21-9.35-10.89-13.3-16.84-3.95-5.95-7.46-12.19-10.52-18.62-3.02-6.45-5.61-13.1-7.77-19.87-4.36-13.54-6.78-27.65-7.47-41.81-.55-14.16,.77-28.43,4.53-42.09,3.84-13.61,10.13-26.56,18.96-37.54Z"/>
    <path class="cls-5" d="M372.97,652.5c-7.6-1.61-15.25-2.7-22.91-3.21-7.68-.36-15.34-.21-22.93,.58-7.58,.87-15.06,2.3-22.35,4.34-7.26,2.16-14.33,4.83-21.1,8.12-6.72,3.39-13.05,7.43-19.03,11.9-5.92,4.57-11.22,9.81-16.02,15.49-4.74,5.74-8.85,11.97-12.39,18.51-3.49,6.58-6.16,13.55-8.26,20.67-2.09,7.14-3.27,14.5-3.82,21.88-.56,7.4,0,14.82,1.13,22.11l1.06,5.44c.45,1.79,1,3.55,1.49,5.33,.45,1.83,1.12,3.45,1.74,5.11,.75,1.6,1.44,3.23,2.38,4.73,3.5,6.15,8.72,11.26,14.76,15.33,3.06,1.99,6.32,3.72,9.72,5.23,3.41,1.48,6.95,2.69,10.54,3.81,7.22,2.13,14.73,3.49,22.33,4.3,15.21,1.68,30.72,1.28,46.14-.32-15.11,3.57-30.75,5.2-46.46,4.72-7.86-.3-15.73-1.24-23.51-3-3.88-.91-7.73-2.06-11.5-3.5-3.76-1.47-7.44-3.21-10.98-5.29-3.51-2.12-6.85-4.61-9.9-7.46-3.06-2.85-5.68-6.19-7.9-9.76-1.16-1.76-2.05-3.68-2.99-5.56-.81-1.94-1.64-3.9-2.18-5.82-.6-1.93-1.25-3.86-1.8-5.81l-1.33-5.93-.33-1.49-.21-1.5-.4-3.01-.39-3.01c-.12-1.01-.12-2.02-.19-3.03-.08-2.02-.26-4.04-.25-6.06l.16-6.06c.55-8.06,1.81-16.08,4.05-23.83,2.35-7.71,5.32-15.24,9.16-22.32,.92-1.79,2.03-3.48,3.04-5.22l1.55-2.59,1.72-2.48c1.18-1.63,2.24-3.35,3.52-4.91l3.83-4.68c5.36-6.01,11.29-11.55,17.78-16.28,6.52-4.68,13.48-8.7,20.77-11.95,29.2-12.95,62.99-13.93,92.25-3.5Z"/>
    <path class="cls-5" d="M464.84,531.55c-11.26,7.08-21.78,14.77-31.39,23.4-9.62,8.61-18.35,18.08-26.1,28.29-7.75,10.22-14.53,21.17-20.24,32.74-5.74,11.58-10.33,23.76-14.14,36.51,.11-13.33,2.95-26.67,7.65-39.31,4.73-12.64,11.38-24.6,19.58-35.38,8.19-10.78,17.93-20.4,28.84-28.34,10.91-7.91,23-14.23,35.81-17.92Z"/>
    <path class="cls-5" d="M643.05,121.77c-7.42,.67-15.01-.42-22.11-2.89-7.11-2.49-13.73-6.24-19.9-10.54-12.33-8.69-22.88-19.47-33.32-30.06-5.21-5.32-10.35-10.69-15.66-15.79-5.32-5.09-10.8-9.99-16.72-14.06-5.89-4.05-12.31-7.29-18.96-8.11-6.63-.86-13.26,1.03-19.03,4.73l-2.14,1.45c-.7,.51-1.38,1.06-2.07,1.58-.7,.53-1.26,1.1-1.9,1.64-.61,.58-1.2,1.21-1.8,1.8-2.35,2.52-4.48,5.38-6.48,8.34-4,5.95-7.5,12.37-10.7,18.94-6.38,13.17-11.69,26.96-16.15,40.95-2.2,7-4.25,14.06-5.85,21.13-.4,1.77-.77,3.53-1.08,5.29-.32,1.75-.57,3.47-.9,5.38l-1.86,11.16c-2.81,14.82-6.59,29.41-10.91,43.76-8.74,28.7-19.65,56.42-27.81,84.78-8.25,28.29-13.72,57.41-13.78,86.81-.07,14.69,1.12,29.39,3.63,43.86,1.26,7.24,2.86,14.42,4.83,21.5,2.01,7.07,4.41,14.02,7.2,20.82,5.49,13.64,12.94,26.5,22.12,38.04,4.58,5.79,9.73,11.12,15.28,16.01,5.54,4.91,11.52,9.35,17.87,13.24-13.15-6.98-25.14-16.35-35.06-27.65-9.93-11.28-18.04-24.17-24.27-37.89-3.12-6.86-5.79-13.92-8.1-21.1-2.25-7.19-4.13-14.5-5.67-21.88-1.57-7.38-2.65-14.85-3.45-22.34-.78-7.5-1.3-15.03-1.41-22.57-.13-7.54,.04-15.09,.51-22.62,.27-3.76,.59-7.53,1.03-11.28,.39-3.76,1.02-7.47,1.52-11.21,2.25-14.9,5.55-29.62,9.55-44.09,3.99-14.48,8.78-28.67,13.56-42.77,4.78-14.11,9.58-28.14,13.84-42.29,4.32-14.12,8.08-28.37,10.89-42.79l1.86-10.85c.32-1.76,.6-3.72,.96-5.63,.35-1.9,.76-3.78,1.18-5.64,1.72-7.44,3.84-14.68,6.23-21.84,4.79-14.3,10.39-28.29,17.18-41.82,3.42-6.75,7.12-13.41,11.56-19.72,2.23-3.15,4.63-6.23,7.42-9.09,.73-.7,1.43-1.41,2.19-2.09,.79-.65,1.57-1.37,2.37-1.95,.8-.58,1.59-1.18,2.41-1.75l2.52-1.62c3.43-2.06,7.22-3.72,11.25-4.66,4.02-.93,8.25-1.16,12.31-.53,4.07,.61,7.93,1.92,11.51,3.62,3.58,1.71,6.87,3.84,9.97,6.12,6.2,4.58,11.69,9.83,16.94,15.2,5.24,5.39,10.25,10.92,15.24,16.43,9.96,11.02,19.98,21.99,31.6,31.08,5.82,4.5,12.08,8.47,18.9,11.27,6.79,2.84,14.18,4.37,21.64,4.16Z"/>
    <path class="cls-5" d="M859.76,87.81c-2.58,3.9-5.97,7.33-9.82,10.16-3.84,2.85-8.15,5.06-12.59,6.87-8.94,3.58-18.44,5.23-27.85,6.25-18.88,1.88-37.65,.8-55.98,.82-4.58,0-9.14,.08-13.63,.37l-3.36,.24-3.32,.35-6.85,.87c-9.15,1.18-18.26,2.6-27.44,4-9.18,1.4-18.47,2.79-27.82,3.5-9.36,.69-18.72,.98-28.05,.52,9.22-1.54,18.39-2.99,27.44-4.89,9.06-1.82,18.03-4,27.12-6.07,9.08-2.09,18.27-3.96,27.51-5.49l6.95-1.08,3.61-.46,3.59-.34c4.78-.35,9.52-.47,14.24-.5,18.84,0,37.27,1.66,55.53,1.14,9.1-.31,18.2-1.06,26.93-3.39,8.73-2.24,17.08-6.29,23.79-12.87Z"/>
    <path class="cls-5" d="M1066.27,275.65l-5.25-12.2-5.19-12.37-10.22-24.8c-6.7-16.57-13.37-33.16-19.87-49.81-6.6-16.61-12.91-33.33-19.35-50l-18.88-50.17-9.23-25.16c-3.03-8.27-6.38-16.33-10.69-23.62-4.31-7.23-9.85-13.65-16.95-17.12-7.08-3.59-15.42-3.73-23.2-1.08-7.81,2.62-14.94,7.67-20.98,13.68-6.03,6-10.87,13.54-15.87,20.88l-14.81,22.34c-5.03,7.39-10.07,14.86-16.02,21.57,2.65-3.61,4.94-7.44,7.22-11.27,2.29-3.82,4.48-7.72,6.68-11.6,4.36-7.79,8.72-15.59,13.19-23.37,2.28-3.87,4.58-7.72,7.05-11.53,2.46-3.79,5.15-7.61,8.29-11.06,6.23-6.9,13.87-12.76,22.9-16.24C929.58,1.02,934.47-.02,939.47,0c5,0,10.01,1.2,14.53,3.3,4.55,2.09,8.58,5.1,12.01,8.54,3.44,3.44,6.32,7.28,8.84,11.26,4.97,8.01,8.46,16.56,11.67,25.01l9.42,25.09,18.42,50.34c5.99,16.84,12.12,33.62,17.95,50.52,5.94,16.86,11.7,33.78,17.43,50.71l8.43,25.46,4.13,12.76,3.98,12.67Z"/>
    <path class="cls-5" d="M1060.22,320.39c-5.31,19.49-2.96,39.97,6.02,57,4.53,8.48,10.28,16.28,17.21,22.92,6.85,6.71,14.67,12.45,23.17,16.95,16.94,9.15,36.26,13.78,55.77,14.1l3.67,.09,3.67-.15c2.45-.11,4.9-.14,7.35-.42,2.44-.26,4.91-.37,7.35-.74l7.33-1.13c9.76-1.74,19.36-4.45,28.97-7.51-8.81,4.89-18.21,8.8-27.96,11.8-9.8,2.82-19.97,4.59-30.26,5.07-10.3,.58-20.7-.36-30.87-2.46-10.17-2.17-20.06-5.79-29.26-10.75-9.15-5.04-17.66-11.33-24.93-18.88-7.19-7.6-13.34-16.28-17.5-25.9-4.32-9.54-6.42-20.02-6.45-30.35,.07-10.34,2.31-20.58,6.74-29.65Z"/>
    <path class="cls-5" d="M366.17,809c6.45,.63,12.76,.2,18.6-1.59,5.86-1.68,11.15-4.71,15.77-8.46,9.3-7.51,15.71-18.13,19.43-29.52,3.71-11.44,4.88-23.77,3.63-36.03-.59-6.14-1.74-12.26-3.28-18.37-1.59-6.1-3.75-12.07-5.99-18.16,3.98,5.11,7.3,10.74,10.14,16.66,2.7,5.98,4.78,12.29,6.12,18.82,2.71,13.03,2.14,26.96-2.08,39.88-2.13,6.45-5.16,12.64-9.14,18.21-3.96,5.57-8.95,10.47-14.7,14.22-5.74,3.73-12.28,6.35-19.03,7.06-6.72,.72-13.51-.15-19.47-2.72Z"/>
    <g>
      <path class="cls-1" d="M1095.09,524.55c-268.71,113.26-324.55,130.47-611.45,54.76-21.21-5.6-16.35-13.14-13.2-23.65-3.56-1.02,0,0,0,0,3.15-10.51,6.39-19.26,26.18-14.33,267.7,66.72,326.31,63.28,579.15-52.06,18.69-8.53,23.43,.39,28.35,9.98,3.27-1.54,0,0,0,0,4.93,9.59,10.83,16.93-9.03,25.3Z"/>
      <path class="cls-2" d="M472.11,577.54c-.77,.3,0,0,0,0-4.13-11.02,1.99-20.61,12.64-25.85,7.33-3.6,20.83-8.74,28.68-11.62,11.4-4.19,22.29,1.88,25.87,11.75,1.2,1.78,0,0,0,0,3.58,9.86-.41,22.59-12.02,26.12-7.99,2.43-21.32,7.19-29.04,9.67-11.22,3.6-21.99,.96-26.12-10.07Z"/>
      <path class="cls-2" d="M533.73,597.17c-1.43-1.95,0,0,0,0-4.11-10.06-.08-22.53,11.42-26.1,7.91-2.45,20.35-6.15,28.24-8.64,11.48-3.61,21.99,1.92,26.37,11.45,1.33,1.72,0,0,0,0,4.38,9.53,2.24,22.55-9.49,26.57-8.07,2.77-20.52,7.34-28.8,9.57-12.03,3.24-23.62-2.8-27.74-12.86Z"/>
      <path class="cls-2" d="M598.96,619.54c-1.63-1.79,0,0,0,0-5.17-9.5-2.61-22.36,8.44-26.99,7.6-3.19,19.38-8.66,26.7-12.11,10.63-5.01,21.53-1.63,27.2,7.03,1.59,1.41,0,0,0,0,5.67,8.66,5.06,22-5.83,27.77-7.49,3.97-19.32,10.68-27.29,14.07-11.59,4.94-24.05-.27-29.22-9.77Z"/>
      <path class="cls-2" d="M666.41,632.29c-1.85-1.44,0,0,0,0-6.51-8.68-5.09-21.55,4.9-28.18,6.87-4.56,18.19-12.7,24.8-17.45,9.6-6.91,21.15-5.61,27.96,2.27,1.82,1.17,0,0,0,0,6.81,7.87,7.08,21.31-2.47,28.81-6.57,5.16-18.12,14.27-25.28,19.04-10.4,6.94-23.39,4.2-29.9-4.48Z"/>
      <path class="cls-2" d="M733.63,632.76c-1.98-1.16,0,0,0,0-7.23-7.91-6.73-21.12,2.21-28.96,6.15-5.4,16.67-15.19,23.02-20.61,9.23-7.88,21.18-6.68,28.38,1.12,1.84,1.19,0,0,0,0,7.21,7.79,8.35,20.94-.9,28.95-6.36,5.51-16.93,14.91-23.34,20.31-9.32,7.85-22.14,7.11-29.37-.8Z"/>
      <path class="cls-2" d="M799.1,628.32c-1.99-1.18,0,0,0,0-7.45-7.72-8.01-21.13,.9-29.05,6.13-5.45,15.81-14.94,21.96-20.37,8.93-7.88,20.55-7.27,28.33-.13,1.88,.97,0,0,0,0,7.78,7.13,9.64,19.95,.78,28.49-6.1,5.87-15.88,16.08-22.31,21.62-9.35,8.06-22.21,7.17-29.66-.55Z"/>
      <path class="cls-2" d="M865.4,620.94c-2.12-.94,0,0,0,0-8.49-6.91-9.91-19.89-1.39-28.57,5.86-5.97,14.33-16.94,20-22.93,8.23-8.71,18.57-10.13,27.97-3.81,.86-.23,0,0,0,0,9.41,6.31,11.23,18.02,3.82,27.87-5.1,6.78-14.58,18.17-20.42,24.51-8.48,9.21-21.49,9.85-29.98,2.94Z"/>
      <path class="cls-2" d="M930.98,604.62c-1.14,.32,0,0,0,0-9.75-6.18-10.63-18.46-3.9-28.16,4.63-6.67,12.16-19.23,16.75-26.07,6.68-9.95,16.88-12.96,27.1-8.09,.85-.42,0,0,0,0,10.22,4.87,13.17,16.35,7.25,27.11-4.08,7.4-12.49,21.1-17.53,27.99-7.33,10.02-19.92,13.4-29.67,7.22Z"/>
      <path class="cls-2" d="M994.42,578.35c-1.05,.5,0,0,0,0-10.52-4.84-12.64-16.96-7.16-27.53,3.77-7.28,9.92-21.36,13.72-28.81,5.52-10.82,16.22-15.08,26.65-10.56,.89-.38,0,0,0,0,10.43,4.51,14.53,15.53,9.6,26.71-3.39,7.7-9.9,21.98-14.11,29.32-6.12,10.66-18.17,15.71-28.69,10.87Z"/>
      <path class="cls-2" d="M1054.68,545.94c-.88,.4,0,0,0,0-10.48-4.35-14.64-15.44-10.09-26.54,3.13-7.63,8.67-20.31,12.49-27.73,5.56-10.78,17.04-13.43,26.97-8.73,.88-.25,0,0,0,0,9.92,4.7,15.41,15.34,10.67,26.2-3.26,7.47-8.75,18.84-12.53,26.07-5.49,10.51-17.03,15.07-27.51,10.73Z"/>
    </g>
    <path class="cls-5" d="M1096.45,358.45c-.13,0-.27,0-.4-.01-3.3-.22-5.8-3.08-5.58-6.38,2.13-31.92,25.8-54.9,26.8-55.86,2.39-2.29,6.18-2.2,8.47,.19,2.29,2.39,2.2,6.18-.18,8.47-.32,.31-21.32,20.89-23.13,48-.21,3.17-2.85,5.59-5.97,5.59Z"/>
    <path class="cls-1" d="M1049.4,314.01c-6.15-.01-12.28,.37-18.29,1.13-3,.38-5.98,.81-8.92,1.41-1.48,.22-2.93,.55-4.39,.87-1.45,.32-2.91,.6-4.32,1.04-1.42,.41-2.84,.8-4.23,1.3l-4.09,1.64c-.69,.23-1.36,.49-2.02,.79-.67,.27-1.34,.52-2.02,.74-1.36,.45-2.78,.74-4.14,1.16-5.72,1.21-11.17,2.79-18.17,3.33l-.68-.99c.81-1.57,1.83-2.91,2.86-4.29,.53-.67,1.07-1.34,1.65-1.96,.6-.58,1.22-1.14,1.85-1.7,1.26-1.09,2.57-2.17,3.94-3.12,1.4-.88,2.85-1.7,4.32-2.48,1.46-.82,3.02-1.35,4.59-1.85,1.58-.47,3.17-.91,4.81-1.09l4.89-.55c1.63-.11,3.25-.22,4.86-.37,1.6-.19,3.22-.22,4.82-.29,1.6-.07,3.2-.14,4.8-.1,3.2,.04,6.38,.26,9.54,.54,6.31,.7,12.53,1.77,18.55,3.68l-.22,1.18Z"/>
    <path class="cls-1" d="M1047.32,358.78c-5.82-2.01-11.74-3.64-17.67-4.87-2.96-.62-5.92-1.17-8.9-1.56-1.47-.27-2.95-.44-4.43-.6-1.48-.17-2.94-.37-4.42-.42-1.48-.07-2.95-.16-4.42-.14l-4.4,.22c-.73,0-1.45,.02-2.17,.09-.72,.04-1.44,.05-2.15,.04-1.43-.01-2.87-.2-4.3-.25-5.8-.71-11.47-.99-18.27-2.75l-.32-1.15c1.27-1.22,2.67-2.16,4.1-3.13,.72-.46,1.45-.92,2.2-1.32,.75-.36,1.52-.69,2.3-1,1.55-.63,3.14-1.22,4.74-1.67,1.61-.38,3.25-.68,4.89-.95,1.65-.3,3.29-.3,4.94-.26,1.64,.06,3.3,.17,4.91,.53l4.81,1.07c1.58,.42,3.15,.84,4.72,1.22,1.58,.34,3.11,.84,4.66,1.29,1.54,.45,3.08,.91,4.58,1.46,3.01,1.08,5.95,2.32,8.85,3.61,5.74,2.71,11.28,5.74,16.35,9.5l-.59,1.04Z"/>
    <path class="cls-1" d="M1045.66,398.08c-5.34-3.05-10.86-5.75-16.46-8.04-2.8-1.15-5.6-2.25-8.45-3.18-1.39-.54-2.82-.97-4.24-1.41-1.42-.44-2.83-.91-4.27-1.23-1.44-.34-2.87-.71-4.32-.96l-4.36-.59c-.71-.14-1.43-.25-2.15-.32-.71-.1-1.42-.21-2.12-.36-1.41-.28-2.78-.73-4.18-1.04-5.57-1.77-11.09-3.09-17.45-6.08l-.1-1.19c1.48-.96,3.03-1.63,4.61-2.32,.79-.32,1.6-.63,2.4-.89,.81-.21,1.62-.39,2.44-.56,1.64-.33,3.31-.62,4.97-.77,1.65-.07,3.31-.07,4.98-.03,1.68,0,3.29,.32,4.9,.66,1.6,.36,3.21,.77,4.72,1.42l4.53,1.94c1.48,.71,2.94,1.41,4.41,2.07,1.49,.63,2.91,1.4,4.34,2.13,1.43,.73,2.86,1.46,4.23,2.28,2.76,1.62,5.42,3.38,8.03,5.18,5.14,3.73,10.02,7.72,14.32,12.36l-.77,.92Z"/>
    <path class="cls-1" d="M440.02,337.84c5.69-2.75,11.69-4.7,17.84-6.29,3.08-.73,6.2-1.4,9.37-1.89,1.58-.27,3.17-.43,4.77-.59,1.6-.16,3.2-.36,4.81-.4,1.61-.08,3.23-.2,4.86-.32l4.92-.16c1.65-.05,3.29,.15,4.92,.4,1.63,.27,3.24,.57,4.81,1.17,1.57,.57,3.11,1.17,4.63,1.84,1.5,.74,2.94,1.62,4.35,2.53,.7,.46,1.39,.92,2.07,1.41,.66,.54,1.29,1.12,1.91,1.71,1.22,1.22,2.42,2.4,3.45,3.84l-.53,1.07c-7.01,.46-12.63-.32-18.46-.7-1.41-.22-2.86-.3-4.27-.56-.71-.12-1.41-.27-2.11-.44-.7-.2-1.4-.36-2.12-.49l-4.28-1.04c-1.44-.3-2.91-.48-4.37-.68-1.46-.22-2.94-.3-4.43-.41-1.48-.11-2.97-.23-4.46-.24-2.99-.17-6-.18-9.03-.12-6.05,.1-12.18,.6-18.26,1.49l-.38-1.14Z"/>
    <path class="cls-1" d="M448.12,382.04c4.49-4.45,9.53-8.24,14.83-11.74,2.68-1.69,5.41-3.33,8.24-4.83,1.41-.77,2.86-1.43,4.32-2.1,1.46-.67,2.91-1.38,4.42-1.94,1.5-.6,2.99-1.24,4.5-1.88l4.61-1.75c1.54-.58,3.16-.92,4.78-1.22,1.62-.28,3.25-.52,4.93-.45,1.67,.03,3.33,.1,4.97,.24,1.66,.22,3.31,.58,4.93,.98,.81,.2,1.62,.42,2.42,.67,.8,.29,1.59,.64,2.36,.99,1.55,.75,3.07,1.49,4.51,2.51l-.15,1.19c-6.48,2.71-12.05,3.8-17.69,5.33-1.41,.25-2.8,.64-4.22,.86-.71,.12-1.42,.2-2.14,.27-.72,.04-1.44,.12-2.16,.23l-4.38,.41c-1.46,.19-2.9,.49-4.36,.77-1.46,.26-2.88,.68-4.32,1.05-1.44,.37-2.89,.75-4.3,1.23-2.89,.81-5.74,1.78-8.58,2.81-5.69,2.06-11.32,4.52-16.79,7.34l-.73-.95Z"/>
    <path class="cls-1" d="M455.2,420.85c3.59-5.2,7.85-9.85,12.41-14.28,2.32-2.15,4.71-4.28,7.21-6.27,1.24-1.01,2.55-1.94,3.86-2.86,1.31-.93,2.61-1.89,3.99-2.73,1.36-.87,2.71-1.77,4.07-2.68l4.2-2.57c1.41-.86,2.94-1.49,4.47-2.08,1.55-.57,3.1-1.11,4.76-1.35,1.64-.28,3.29-.52,4.93-.68,1.67-.09,3.36-.04,5.03,.05,.84,.05,1.67,.12,2.5,.21,.84,.14,1.68,.34,2.51,.54,1.66,.45,3.29,.89,4.89,1.64l.07,1.2c-5.86,3.86-11.14,5.96-16.4,8.51-1.34,.5-2.63,1.15-3.99,1.62-.67,.24-1.36,.46-2.05,.66-.7,.17-1.4,.38-2.08,.62l-4.23,1.21c-1.4,.46-2.76,1.02-4.14,1.56-1.38,.53-2.71,1.2-4.05,1.83-1.35,.63-2.7,1.27-4,2-2.69,1.33-5.31,2.81-7.92,4.35-5.22,3.07-10.29,6.53-15.15,10.31l-.89-.8Z"/>
    <path class="cls-5" d="M1127.13,383.66c-.13,0-.27,0-.4-.01-3.3-.22-5.8-3.08-5.58-6.38,2.13-31.92,25.8-54.9,26.8-55.86,2.39-2.29,6.18-2.2,8.47,.19,2.29,2.39,2.2,6.18-.18,8.47-.32,.31-21.32,20.89-23.13,48-.21,3.17-2.85,5.59-5.97,5.59Z"/>
    <path class="cls-5" d="M1164.75,400.4c-.13,0-.27,0-.4-.01-3.3-.22-5.8-3.08-5.58-6.38,2.13-31.92,25.8-54.9,26.8-55.86,2.39-2.29,6.18-2.2,8.47,.19,2.29,2.39,2.2,6.18-.18,8.47-.32,.31-21.32,20.89-23.13,48-.21,3.17-2.85,5.59-5.97,5.59Z"/>
    <path class="cls-5" d="M375.12,788.27c-.49,0-.98-.06-1.47-.18-3.21-.81-5.15-4.06-4.34-7.27h0c.07-.29,7.01-28.97-5.89-52.96-1.57-2.91-.47-6.55,2.44-8.11,2.91-1.57,6.55-.47,8.11,2.44,15.14,28.17,7.29,60.22,6.95,61.57-.69,2.72-3.13,4.52-5.8,4.52Z"/>
    <path class="cls-5" d="M332.19,794.85c-.49,0-.98-.06-1.47-.18-3.21-.81-5.15-4.06-4.34-7.27,.09-.35,6.99-29-5.89-52.96-1.57-2.91-.47-6.55,2.44-8.11,2.92-1.57,6.55-.47,8.11,2.44,15.14,28.18,7.29,60.22,6.95,61.57-.69,2.72-3.13,4.52-5.8,4.52Z"/>
    <path class="cls-5" d="M288.42,800.63c-.49,0-.98-.06-1.47-.18-3.21-.81-5.15-4.07-4.34-7.27,.1-.41,6.98-29.02-5.89-52.96-1.57-2.91-.47-6.55,2.44-8.11,2.91-1.57,6.55-.47,8.11,2.44,15.14,28.17,7.29,60.22,6.95,61.57-.69,2.72-3.13,4.52-5.8,4.52Z"/>
    <path class="cls-1" d="M788.01,302.05c2.12,.34,4.14,.28,5.94-.29,1.8-.57,3.43-1.5,4.96-2.78,3.07-2.44,5.9-5.59,8.86-8.73,5.88-6.35,12.4-12.79,20.02-18.01,3.8-2.61,7.85-4.9,12.07-6.84,4.24-1.89,8.63-3.39,13.09-4.57,8.96-2.23,18.06-3.16,27.05-3.45,4.49-.14,9.01-.05,13.37,.2,4.4,.22,8.79,.38,13.18,.84l6.58,.62,6.56,.88c4.37,.51,8.71,1.4,13.05,2.16,8.63,1.84,17.19,4.09,25.44,7.23,8.2,3.2,16.34,6.93,22.96,13.02l-.84,.85c-1.6-1.29-3.48-2.42-5.36-3.42-1.87-1.03-3.84-1.9-5.8-2.75-1.98-.81-3.96-1.63-6-2.29-2.01-.74-4.07-1.33-6.13-1.92-8.25-2.33-16.72-3.78-25.22-4.82-4.27-.41-8.51-.96-12.81-1.13l-6.42-.37-6.44-.12c-4.28-.18-8.58-.07-12.87-.02-4.32,.02-8.5,.2-12.68,.59-8.35,.76-16.52,2.54-24.23,5.25-1.92,.71-3.85,1.36-5.71,2.17-1.91,.7-3.73,1.59-5.59,2.4-3.67,1.72-7.28,3.56-10.82,5.59-7.11,4.06-13.77,9.06-20.85,14.25-3.59,2.54-7.29,5.24-11.76,7.14-2.21,.92-4.72,1.61-7.24,1.53-2.52-.05-4.89-.88-6.81-2.12l.45-1.11Z"/>
    <path class="cls-1" d="M703.29,302.58c-1.82,1.44-4.13,2.51-6.66,2.83-2.53,.35-5.13-.05-7.46-.73-4.73-1.41-8.77-3.71-12.69-5.86-7.76-4.44-15.07-8.71-22.73-11.99-7.64-3.29-15.46-5.84-23.59-7.71-8.13-1.84-16.6-2.74-25.14-2.59-4.27,.06-8.53,.33-12.91,.77-4.35,.4-8.71,.76-13.02,1.39l-6.5,.81-6.46,1.06c-4.33,.63-8.57,1.62-12.85,2.49-8.5,1.94-16.93,4.28-25.05,7.47-2.02,.81-4.06,1.61-6.01,2.56-2,.88-3.92,1.9-5.85,2.92-1.9,1.05-3.8,2.13-5.6,3.36-1.8,1.2-3.59,2.52-5.09,3.98l-.92-.77c6.12-6.8,13.99-11.37,21.97-15.42,8.04-4,16.46-7.15,25.01-9.89,4.31-1.21,8.6-2.56,12.97-3.53l6.54-1.58,6.59-1.32c4.39-.92,8.82-1.56,13.24-2.24,4.39-.72,8.94-1.29,13.49-1.63,9.11-.68,18.4-.73,27.69,.49,4.63,.7,9.24,1.68,13.73,3.12,4.48,1.46,8.83,3.3,12.98,5.48,8.3,4.37,15.65,10.1,22.35,15.82,3.36,2.82,6.59,5.67,9.99,7.78,1.7,1.1,3.47,1.86,5.36,2.23,1.9,.37,3.95,.22,6.07-.35l.56,1.06Z"/>
    <path class="cls-2" d="M576.63,379.34c-4.89,1.76-9.53,4.36-13,8.09-3.47,3.69-5.7,8.46-5.95,13.39-.26,4.93,1.21,9.81,3.82,13.95,1.33,2.06,2.93,3.94,4.69,5.65,1.79,1.69,3.78,3.15,5.86,4.48,4.22,2.56,8.88,4.4,13.71,5.57,4.88,1.19,9.7,1.55,14.6,1.05,9.78-.99,19.3-4.85,28.7-9.02,4.71-2.1,9.43-4.3,14.18-6.47,4.76-2.17,9.58-4.25,14.45-6.27,9.75-4,19.74-7.57,29.97-10.38,20.46-5.67,41.71-8.29,62.85-8.52,5.28,.01,10.54,.17,15.81,.25,5.27,.15,10.53,.6,15.8,.89,5.26,.44,10.51,1.07,15.76,1.65l7.84,1.21,3.92,.61,3.89,.79,7.77,1.61,7.69,1.93c2.58,.61,5.1,1.38,7.63,2.11,2.54,.73,5.07,1.45,7.57,2.28,5.02,1.57,9.98,3.23,14.92,4.89,4.92,1.69,9.81,3.32,14.71,4.79,2.46,.65,4.9,1.43,7.37,1.99l3.71,.81c1.24,.27,2.47,.57,3.72,.71l3.74,.54c1.25,.19,2.49,.38,3.75,.42l3.77,.24c1.26,.08,2.52,.21,3.78,.13,2.51-.08,5.07-.04,7.56-.21,1.23-.14,2.48-.2,3.69-.4,1.2-.24,2.44-.38,3.62-.69,1.16-.35,2.39-.55,3.49-1.02l1.69-.63c.56-.21,1.07-.52,1.61-.77,1.1-.48,2.04-1.18,3.04-1.8,.48-.33,.9-.74,1.35-1.1l.67-.56,.59-.63c1.65-1.64,2.89-3.64,3.7-5.84,.81-2.2,1.29-4.58,1.28-7.01,.06-4.88-1.3-9.83-3.4-14.42-2.15-4.58-5.09-8.85-8.75-12.43-3.61-3.61-8.05-6.55-13.13-7.83,5.17,.82,10,3.42,14.04,6.82,4.06,3.41,7.44,7.63,10.06,12.3,2.6,4.68,4.38,9.93,4.66,15.49,.18,2.77-.2,5.62-1.03,8.35-.38,1.39-1.02,2.68-1.66,3.98l-1.16,1.84c-.37,.63-.89,1.13-1.34,1.71l-.7,.83-.79,.74c-.54,.48-1.04,1-1.61,1.44-1.16,.83-2.3,1.72-3.56,2.36-.62,.33-1.23,.72-1.87,1l-1.93,.83c-1.28,.61-2.63,.9-3.94,1.36-1.33,.41-2.68,.64-4.02,.96-1.34,.29-2.7,.42-4.05,.64-2.69,.32-5.35,.4-8.04,.61-10.76,.46-21.56-1.28-31.8-3.97-10.28-2.67-20.13-6.04-30.04-8.91-2.47-.76-4.96-1.42-7.44-2.07-2.49-.66-4.96-1.36-7.47-1.9l-7.5-1.72-7.56-1.41c-20.15-3.79-40.77-4.94-61.36-4.79-10.25,.03-20.49,.67-30.64,1.93-10.15,1.26-20.19,3.27-30.1,5.8-9.92,2.51-19.65,5.77-29.25,9.48-9.6,3.73-19.07,7.92-28.81,11.88-4.87,1.97-9.83,3.88-14.98,5.43-5.14,1.55-10.51,2.74-16.03,3.01-5.49,.32-11.17-.39-16.34-1.93-5.22-1.53-10.28-3.76-14.81-6.87-2.23-1.61-4.35-3.37-6.23-5.38-1.86-2.03-3.53-4.24-4.88-6.65-2.66-4.82-4.03-10.46-3.3-15.95,.68-5.49,3.52-10.52,7.47-14.12,3.99-3.61,8.93-5.8,13.94-7.13Z"/>
    <path class="cls-1" d="M537.19,448.46c-4.29-2.32-8.67-4.43-13.08-6.48-4.4-2.07-8.84-4.06-13.31-5.95-8.94-3.8-17.96-7.39-27.11-10.6-18.24-6.58-36.86-11.97-55.69-16.26-18.86-4.16-37.91-7.4-57.12-8.9-19.18-1.58-38.47-1.92-57.62-.33-9.57,.73-19.13,1.75-28.6,3.35-9.47,1.57-18.87,3.58-28.17,5.95-9.29,2.42-18.5,5.2-27.55,8.44-2.26,.81-4.5,1.7-6.75,2.54l-3.37,1.29-3.33,1.39c-2.22,.93-4.46,1.8-6.66,2.77l-6.58,2.96c-8.73,4.07-17.31,8.47-25.66,13.31-4.23,2.32-8.31,4.92-12.44,7.43-2.07,1.25-4.05,2.64-6.08,3.95-2,1.35-4.07,2.62-6.03,4.04-15.97,10.95-31.06,23.24-45.52,36.31,13.06-14.49,27.49-27.78,42.92-39.88,15.52-11.97,32.15-22.62,49.75-31.49,8.76-4.51,17.82-8.43,27-12.02,9.21-3.52,18.6-6.59,28.1-9.28,19.06-5.16,38.61-8.51,58.29-10.03,19.69-1.46,39.48-1.08,59.08,.84,9.8,1,19.55,2.4,29.22,4.16,9.68,1.73,19.28,3.9,28.77,6.4,19.01,4.95,37.59,11.35,55.63,18.96,9,3.85,17.88,7.96,26.56,12.45,8.68,4.49,17.21,9.29,25.34,14.67Z"/>
    <path class="cls-1" d="M106.52,493.66c15.13,15.28,30.17,30.63,45.09,46.1,14.98,15.41,29.78,30.99,44.67,46.49l44.33,46.8,44.09,47.03-3.43-1.38c32.34-2.05,64.7-4.38,96.96-6.96,8.06-.68,16.12-1.4,24.09-2.3,1.99-.23,3.98-.47,5.93-.74,1.94-.27,3.93-.57,5.64-.94,.42-.09,.82-.2,1.06-.27,.06-.02,.24-.1-.11,.08l-.35,.25c-.36,.27-.68,.65-.89,1.05-.15,.29-.11,.22-.09,.18l.05-.08,.09-.17,1.45-2.68,2.92-5.34,23.42-42.7c15.68-28.43,31.42-56.82,47.37-85.1,15.93-28.29,31.96-56.52,48.37-84.53-14.35,29.12-29.08,58.02-43.92,86.86-14.81,28.85-29.83,57.59-44.91,86.29l-22.72,43-2.84,5.37-1.43,2.68-.09,.17-.24,.42c-.3,.49-.71,.95-1.16,1.32-.28,.23-.37,.27-.43,.31l-.25,.14c-.79,.44-1.09,.5-1.51,.66-.72,.23-1.31,.38-1.88,.51-2.25,.5-4.27,.8-6.35,1.11-2.06,.3-4.1,.56-6.13,.8-8.14,.96-16.24,1.73-24.34,2.45-32.4,2.91-64.79,4.84-97.21,6.79l-2.06,.12-1.37-1.5-43.41-47.65-43.17-47.88c-14.28-16.06-28.65-32.04-42.84-48.19-14.25-16.09-28.38-32.29-42.42-48.57Z"/>
    <path class="cls-2" d="M106.52,493.66l175.01,189.36s133.82-7.99,135.82-11.98c2-3.99,119.84-222.58,119.84-222.58,0,0-238.92-147.54-430.67,45.21Z"/>
    <circle class="cls-3" cx="781.86" cy="673.04" r="75.1"/>
    <path class="cls-5" d="M856.96,673.04c.35,7.5-.32,15.1-2.15,22.52-2,7.37-5.1,14.45-9.12,21.04-4.17,6.51-9.38,12.33-15.25,17.44l-4.58,3.64c-1.61,1.1-3.28,2.12-4.92,3.18-1.61,1.12-3.39,1.94-5.13,2.84-1.75,.88-3.47,1.84-5.32,2.48-7.19,3.19-15,4.85-22.82,5.6l-5.9,.36-5.92-.22c-1.98,0-3.93-.35-5.89-.61-1.95-.31-3.94-.45-5.85-1l-5.77-1.42-5.6-2.01c-1.9-.6-3.64-1.55-5.44-2.38-1.79-.85-3.6-1.67-5.27-2.75-6.95-3.84-13.13-8.99-18.56-14.75l-2-2.21-1-1.11-.89-1.19-3.55-4.78c-2.06-3.39-4.27-6.71-5.84-10.36-.85-1.79-1.74-3.57-2.35-5.46-.66-1.87-1.37-3.72-1.97-5.61l-1.44-5.77-.36-1.44-.22-1.47-.41-2.94-.4-2.94c-.15-.98-.11-1.97-.17-2.96-.07-1.98-.17-3.95-.2-5.92,.28-3.94,.33-7.9,1.15-11.77,.49-3.92,1.7-7.69,2.72-11.49,1.45-3.66,2.73-7.39,4.66-10.82l1.34-2.62c.43-.88,1.03-1.67,1.53-2.51,1.07-1.64,2.06-3.33,3.21-4.91l3.61-4.61c.57-.79,1.27-1.48,1.95-2.18l2.03-2.1c.68-.69,1.34-1.41,2.05-2.08l2.22-1.9,2.22-1.89,1.11-.94,1.19-.84,4.76-3.33c1.67-.97,3.36-1.92,5.04-2.86,1.65-1.01,3.48-1.67,5.23-2.46l2.65-1.14c.87-.41,1.82-.62,2.72-.94,1.83-.57,3.64-1.22,5.48-1.71l5.61-1.17c7.53-1.17,15.16-1.52,22.61-.42l-5.62,.13c-1.86,.15-3.72,.39-5.56,.59-.92,.12-1.85,.14-2.76,.33l-2.73,.56-2.72,.56-1.35,.28-1.33,.41-5.28,1.63c-1.73,.62-3.4,1.39-5.1,2.07-.83,.37-1.71,.64-2.51,1.1l-2.42,1.3c-1.6,.89-3.26,1.64-4.74,2.72l-4.55,3-4.24,3.4-1.06,.85-.98,.94-1.94,1.89-1.94,1.88c-.62,.66-1.18,1.37-1.77,2.05-1.14,1.4-2.4,2.69-3.43,4.16l-3.12,4.39c-.99,1.49-1.81,3.1-2.72,4.63-.42,.79-.94,1.52-1.29,2.35l-1.1,2.45c-1.62,3.19-2.6,6.64-3.77,9.99-.78,3.48-1.82,6.88-2.13,10.44-.65,3.5-.56,7.07-.74,10.61,.08,1.77,.23,3.54,.33,5.3,.08,.88,.06,1.77,.22,2.64l.44,2.62,.44,2.61,.21,1.31,.34,1.28,1.35,5.12c.55,1.67,1.23,3.31,1.83,4.96,.55,1.68,1.38,3.24,2.15,4.82,1.41,3.24,3.4,6.17,5.23,9.18l3.18,4.22,.79,1.06,.89,.97,1.78,1.95c9.44,10.49,22.21,17.84,35.93,21.14,13.74,3.36,28.52,2.49,41.94-2.37,6.67-2.51,13.12-5.83,18.85-10.21,5.73-4.36,10.93-9.49,15.29-15.33,4.3-5.88,7.74-12.39,10.38-19.3,2.44-6.97,3.87-14.3,4.52-21.79Z"/>
    <path class="cls-1" d="M706.98,678.89c13.08,1.07,25.85,1.94,38.56,2.38,12.7,.46,25.31,.35,37.8-.5,12.48-.92,24.85-2.62,36.98-5.61,6.1-1.44,12.05-3.37,18.04-5.47,5.99-2.14,11.79-4.8,17.8-7.54-2.27,2.35-4.57,4.78-7.16,6.82-1.27,1.06-2.54,2.16-3.89,3.11l-4.1,2.86c-5.6,3.59-11.56,6.74-17.8,9.18-12.47,4.95-25.76,7.65-39.04,8.6-13.3,.9-26.62,.16-39.62-2.11-12.97-2.31-25.77-5.84-37.59-11.72Z"/>
    <circle class="cls-1" cx="788.28" cy="725.02" r="12.8"/>
    <path class="cls-2" d="M1413.02,1139s45.93-24.78,58.02,0c12.09,24.78-58.02,0-58.02,0Z"/>
    <path class="cls-2" d="M1413.02,1150.01s51.84,6.02,47.54,33.26c-4.3,27.23-47.54-33.26-47.54-33.26Z"/>
    <path class="cls-2" d="M1414.32,1122.64s31.96-41.26,53.05-23.5-53.05,23.5-53.05,23.5Z"/>
    <path class="cls-2" d="M59.93,1190s-34.97,38.74-54.67,19.44c-19.69-19.3,54.67-19.44,54.67-19.44Z"/>
    <path class="cls-2" d="M56.24,1179.62s-50.86,11.69-55.94-15.41c-5.07-27.1,55.94,15.41,55.94,15.41Z"/>
    <path class="cls-2" d="M64.19,1205.85s-16.29,49.58-42.11,39.91c-25.82-9.67,42.11-39.91,42.11-39.91Z"/>
    <g>
      <g>
        <ellipse class="cls-3" cx="898.99" cy="898.96" rx="21.18" ry="35.81" transform="translate(-284.8 435.33) rotate(-23.61)"/>
        <ellipse class="cls-3" cx="868.83" cy="957.7" rx="35.81" ry="21.18" transform="translate(-89.48 89.54) rotate(-5.61)"/>
        <ellipse class="cls-3" cx="915.38" cy="1004.54" rx="35.81" ry="21.18" transform="translate(-262.16 1683.08) rotate(-77.61)"/>
        <ellipse class="cls-3" cx="974.31" cy="974.74" rx="21.18" ry="35.81" transform="translate(-359.39 1322.1) rotate(-59.61)"/>
        <ellipse class="cls-3" cx="964.18" cy="909.49" rx="35.81" ry="21.18" transform="translate(-360.68 869.78) rotate(-41.61)"/>
      </g>
      <circle class="cls-3" cx="924.82" cy="947.78" r="9.77"/>
    </g>
    <g>
      <g>
        <ellipse class="cls-3" cx="1041.55" cy="754.52" rx="11.75" ry="19.87"/>
        <ellipse class="cls-3" cx="1013.16" cy="777.69" rx="11.75" ry="19.87" transform="translate(-39.55 1500.94) rotate(-72)"/>
        <ellipse class="cls-3" cx="1026.42" cy="811.85" rx="19.87" ry="11.75" transform="translate(-233.7 1165.05) rotate(-54)"/>
        <ellipse class="cls-3" cx="1063.01" cy="809.8" rx="11.75" ry="19.87" transform="translate(-272.97 779.48) rotate(-36)"/>
        <ellipse class="cls-3" cx="1072.36" cy="774.37" rx="19.87" ry="11.75" transform="translate(-186.81 369.28) rotate(-18)"/>
      </g>
      <circle class="cls-3" cx="1043.84" cy="785.09" r="5.42"/>
    </g>
    <g>
      <g>
        <ellipse class="cls-3" cx="417.7" cy="857.61" rx="11.75" ry="19.87"/>
        <ellipse class="cls-3" cx="389.3" cy="880.78" rx="11.75" ry="19.87" transform="translate(-568.67 978.85) rotate(-72)"/>
        <ellipse class="cls-3" cx="402.56" cy="914.94" rx="19.87" ry="11.75" transform="translate(-574.26 702.83) rotate(-54)"/>
        <ellipse class="cls-3" cx="439.15" cy="912.89" rx="11.75" ry="19.87" transform="translate(-452.71 432.47) rotate(-36)"/>
        <ellipse class="cls-3" cx="448.5" cy="877.46" rx="19.87" ry="11.75" transform="translate(-249.2 181.54) rotate(-18)"/>
      </g>
      <circle class="cls-3" cx="419.98" cy="888.18" r="5.42"/>
    </g>
    <g>
      <g>
        <ellipse class="cls-3" cx="528.11" cy="947.49" rx="19.87" ry="11.75" transform="translate(-545.92 795.49) rotate(-52.81)"/>
        <ellipse class="cls-3" cx="491.49" cy="948.78" rx="11.75" ry="19.87" transform="translate(-453.67 450.36) rotate(-34.81)"/>
        <ellipse class="cls-3" cx="481.4" cy="984.01" rx="19.87" ry="11.75" transform="translate(-264.01 181.27) rotate(-16.81)"/>
        <ellipse class="cls-3" cx="511.79" cy="1004.5" rx="19.87" ry="11.75" transform="translate(-503.12 1495.31) rotate(-88.81)"/>
        <ellipse class="cls-3" cx="540.66" cy="981.92" rx="11.75" ry="19.87" transform="translate(-564.42 1169.78) rotate(-70.81)"/>
      </g>
      <circle class="cls-3" cx="511.45" cy="973.22" r="5.42"/>
    </g>
    <g>
      <g>
        <ellipse class="cls-3" cx="1098.28" cy="872.04" rx="23.51" ry="13.9" transform="translate(-117.96 1570.21) rotate(-68.31)"/>
        <ellipse class="cls-3" cx="1056.94" cy="885.09" rx="13.9" ry="23.51" transform="translate(-299.16 1133.11) rotate(-50.31)"/>
        <ellipse class="cls-3" cx="1056.57" cy="928.44" rx="23.51" ry="13.9" transform="translate(-332.65 708.43) rotate(-32.31)"/>
        <ellipse class="cls-3" cx="1097.69" cy="942.19" rx="13.9" ry="23.51" transform="translate(-198.79 300.49) rotate(-14.31)"/>
        <ellipse class="cls-3" cx="1123.46" cy="907.33" rx="13.9" ry="23.51" transform="translate(145.66 1970.03) rotate(-86.31)"/>
      </g>
      <circle class="cls-3" cx="1087.42" cy="906.64" r="6.42"/>
    </g>
    <path class="cls-3" d="M213.93,482.33c-2.82,27.49,2.62,54.78,15.01,79.41,2.72,5.4,10.11,5.5,14.12,1.82,1.12-1.03,2.24-2.06,3.36-3.09,8.54-7.84-4.2-20.53-12.71-12.71-1.12,1.03-2.24,2.06-3.36,3.09,4.71,.61,9.41,1.21,14.12,1.82-11.02-21.89-15.05-46.02-12.56-70.34,1.18-11.5-16.81-11.41-17.98,0h0Z"/>
    <path class="cls-3" d="M238.61,476.37c15.51-2.94,30.4,7.83,38.28,20.42,9.44,15.08,12.34,33.16,15.32,50.4,4.4-3.38,8.8-6.77,13.2-10.15-1.86-1.07-3.72-2.13-5.59-3.2-10.06-5.75-19.12,9.77-9.07,15.52,1.86,1.07,3.72,2.13,5.59,3.2,7.3,4.17,14.49-2.68,13.2-10.15-3.77-21.85-8.2-44.56-22.56-62.22-12.93-15.9-32.72-25.04-53.15-21.16-11.35,2.16-6.55,19.48,4.78,17.33h0Z"/>
    <path class="cls-3" d="M246.96,511.93c6.99-2.33,13.98-4.66,20.97-6.99,10.92-3.64,6.24-21.01-4.78-17.33-6.99,2.33-13.98,4.66-20.97,6.99-10.92,3.64-6.24,21.01,4.78,17.33h0Z"/>
    <path class="cls-3" d="M260.22,533.18c3.67-2.32,7.34-4.64,11-6.96,3.97-2.51,5.92-8.12,3.22-12.3-2.56-3.97-8.05-5.91-12.3-3.22-3.67,2.32-7.34,4.64-11,6.96-3.97,2.51-5.92,8.12-3.22,12.3s8.05,5.91,12.3,3.22h0Z"/>
    <path class="cls-3" d="M261.94,566.86c5.66-2.33,11.32-4.66,16.98-6.99,4.49-1.85,7.68-5.97,6.28-11.06-1.17-4.24-6.54-8.14-11.06-6.28-5.66,2.33-11.32,4.66-16.98,6.99-4.49,1.85-7.68,5.97-6.28,11.06,1.17,4.24,6.54,8.14,11.06,6.28h0Z"/>
    <path class="cls-3" d="M242.2,592.47c3.78,6.83,7.55,13.67,11.33,20.5,4.92,8.91,19.23,2.89,16.43-6.93-.22-.77-.44-1.55-.66-2.32-3.18-11.1-20.53-6.38-17.33,4.78,.22,.77,.44,1.55,.66,2.32l16.43-6.93c-3.78-6.83-7.55-13.67-11.33-20.5-5.6-10.13-21.13-1.07-15.52,9.07h0Z"/>
    <path class="cls-3" d="M294.79,584.17c3.72,2.81,6.16,7.29,7.32,12.07s6.48,7.54,11.06,6.28c4.81-1.32,7.42-6.32,6.28-11.06-2.29-9.47-7.9-17.02-15.58-22.81-3.88-2.93-10.05-.62-12.3,3.22-2.69,4.61-.66,9.36,3.22,12.3h0Z"/>
    <path class="cls-3" d="M320.92,486.16c29.63-7.76,59.8-12.32,90.41-13.59,11.53-.48,11.59-18.46,0-17.98-32.15,1.34-64.06,6.09-95.18,14.24-11.18,2.93-6.44,20.27,4.78,17.33h0Z"/>
    <path class="cls-3" d="M343.32,434.35c38.18,46.14,52.84,109.83,39.21,168.06-2.63,11.25,14.69,16.06,17.33,4.78,15.2-64.92-1.38-134.25-43.83-185.55-7.38-8.92-20.04,3.86-12.71,12.71h0Z"/>
    <path class="cls-3" d="M343.63,504.24c2.06,22.79-1.04,45.02-9.22,66.39-4.14,10.81,13.23,15.49,17.33,4.78,8.68-22.66,12.04-47,9.86-71.17-1.03-11.43-19.02-11.54-17.98,0h0Z"/>
  </g>
</svg>