<?xml version="1.0" standalone="no"?><!DOCTYPE svg PUBLIC "-//W3C//DTD SVG 1.1//EN" "http://www.w3.org/Graphics/SVG/1.1/DTD/svg11.dtd"><svg t="1701935062018" class="icon" viewBox="0 0 1024 1024" version="1.1" xmlns="http://www.w3.org/2000/svg" p-id="4451" xmlns:xlink="http://www.w3.org/1999/xlink" width="200" height="200"><path d="M510.777 513.223m-418.146 0a418.146 418.146 0 1 0 836.292 0 418.146 418.146 0 1 0-836.292 0Z" fill="#FFD7D7" p-id="4452"></path><path d="M227.551 711.492c0.14-1.099 0-519.1 0-519.1s14.823 38.605 31.592 35.526c6.361-1.168 26.106-35.486 36.691-34.868 4.741 0.277 7.238 24.677 17.109 25.664s23.585-27.673 31.482-27.748c5.924-0.056 9.496 27.09 18.53 29.064s24.14-32.03 31.156-31.361c10.106 0.964 6.682 29.058 17.54 30.045s22.724-32.207 28.361-31.309c6.515 1.039 10.135 32.296 19.018 33.283 8.884 0.987 22.562-32.992 28.296-33.565 10.051-1.005 9.723 33.579 20.581 33.579s26.14-32.108 37.491-34.237c9.055-1.698 9.542 32.248 22.374 32.248 12.832 0 29.065-29.19 35.37-30.119 15.135-2.23 10.035 27.158 25.828 27.158s35.369-38.638 40.874-38.682c14.237-0.113-1.875 40.772 9.473 40.18 19.242-1.004 29.112-43.284 56.092-39.998 0 0-37.03 85.704-22.177 191.076 11.026 78.224 58.546 359.791-21.583 425.711-44.69 36.765-112.05 54.478-191.775 51.808-129.671-4.343-282.103-57.721-272.323-134.355z" fill="#FFD96E" p-id="4453"></path><path d="M669.902 177.07c14.035 0-1.688 40.186 9.174 40.186 0.079 0 0.159-0.002 0.241-0.006 18.522-0.967 28.362-40.18 53.136-40.18 0.963 0 1.947 0.059 2.956 0.182 0 0-37.03 85.704-22.177 191.076 11.026 78.224 58.546 359.791-21.583 425.711-41.755 34.351-103.307 52.07-176.237 52.07a462.36 462.36 0 0 1-15.538-0.263c-129.671-4.343-282.103-57.722-272.323-134.355 0.14-1.099 0-519.1 0-519.1s13.708 35.701 29.672 35.701c0.637 0 1.276-0.057 1.92-0.175 6.304-1.158 25.754-34.876 36.405-34.876 0.096 0 0.191 0.003 0.286 0.008 4.741 0.277 7.239 24.677 17.109 25.664 0.167 0.017 0.335 0.025 0.505 0.025 9.829 0 23.214-27.699 30.977-27.773h0.018c5.914 0 9.486 27.092 18.512 29.064 0.255 0.056 0.515 0.083 0.779 0.083 9.01 0 23.269-31.453 30.169-31.453 0.07 0 0.139 0.003 0.207 0.01 10.106 0.964 6.682 29.058 17.54 30.045 0.159 0.014 0.318 0.022 0.478 0.022 10.581 0 22.014-31.348 27.654-31.348 0.078 0 0.154 0.006 0.229 0.018 6.515 1.039 10.135 32.296 19.018 33.283 0.127 0.014 0.256 0.021 0.384 0.021 8.889 0 22.259-33.021 27.912-33.586a4.4 4.4 0 0 1 0.426-0.021c9.62 0 9.453 33.601 20.155 33.601 10.858 0 26.14-32.108 37.491-34.237 0.22-0.041 0.437-0.062 0.648-0.062 8.439 0 9.206 32.31 21.726 32.31 12.832 0 29.065-29.19 35.37-30.119 0.552-0.081 1.08-0.121 1.581-0.121 13.212 0 9.031 27.279 24.248 27.279 15.793 0 35.369-38.638 40.874-38.682 0.019-0.002 0.039-0.002 0.058-0.002m0-9.706h-0.115c-6.876 0.055-11.085 5.687-18.725 15.912-4.134 5.532-8.82 11.803-13.516 16.578-6.011 6.112-8.551 6.191-8.576 6.191a2.01 2.01 0 0 1-0.255-0.014c-1.175-0.897-2.86-5.494-3.771-7.981-2.643-7.212-7.068-19.284-20.221-19.284-0.977 0-1.985 0.076-2.996 0.225-6.129 0.903-10.588 6.184-17.338 14.176-3.246 3.844-6.925 8.201-10.412 11.458-2.701 2.523-4.439 3.598-5.391 4.054-1.669-2.367-3.688-8.273-4.838-11.636-1.367-3.998-2.658-7.775-4.36-10.993-4.089-7.731-9.511-9.354-13.341-9.354-0.81 0-1.629 0.077-2.436 0.228-9.068 1.701-16.4 10.924-24.162 20.689-2.788 3.507-6.99 8.793-10.028 11.65-1.069-2.662-2.185-6.42-2.892-8.798-1.3-4.376-2.644-8.901-4.484-12.645-4.234-8.617-10.11-10.426-14.293-10.426-0.461 0-0.928 0.023-1.39 0.069-7.258 0.726-11.336 7.379-18.092 18.402-2.009 3.278-5.176 8.445-7.82 11.995-1.234-2.905-2.501-6.55-3.339-8.958-3.675-10.567-6.848-19.693-15.572-21.084a11.23 11.23 0 0 0-1.757-0.139c-7.823 0-12.1 6.997-18.018 16.681-1.969 3.221-5.5 9-8.314 12.397-0.576-1.887-1.119-4.129-1.515-5.761-0.959-3.954-1.951-8.042-3.621-11.622-3.674-7.873-9.25-9.984-13.281-10.369a11.771 11.771 0 0 0-1.129-0.054c-8.257 0-13.654 7.666-21.124 18.276-2.123 3.016-5.538 7.866-8.207 10.931-1.336-2.664-2.765-6.328-3.678-8.672-1.355-3.475-2.634-6.758-4.128-9.512-3.139-5.785-7.285-8.718-12.322-8.718h-0.11c-8.263 0.078-14.26 7.598-21.203 16.305-2.341 2.936-6.277 7.871-8.989 10.314-1.405-2.461-2.975-6.654-3.837-8.955-1.023-2.732-1.989-5.312-3.121-7.506-2.622-5.082-6.25-7.792-10.784-8.057a14.124 14.124 0 0 0-0.851-0.025c-10.13 0-18.809 9.886-30.894 24.968-2.701 3.37-6.224 7.768-8.311 9.869-1.938-0.774-6.082-3.864-11.525-12.767-4.94-8.081-8.178-16.417-8.21-16.5a9.717 9.717 0 0 0-10.835-6.052 9.702 9.702 0 0 0-7.929 9.541c0.001 5.058 0.134 500.625 0.008 518.435-2.318 19.471 4.073 38.231 19.001 55.768 14.801 17.389 46.017 42.456 110.674 63.128 46.707 14.933 100.696 24.104 152.021 25.823 5.315 0.178 10.652 0.268 15.863 0.268 76.164 0 139.238-18.77 182.403-54.281 19.128-15.736 32.822-43.242 40.702-81.755 6.383-31.198 9.174-70.535 8.294-116.916-1.573-82.868-14.471-170.888-21.4-218.175-0.994-6.784-1.853-12.644-2.568-17.715-14.307-101.496 21.117-185.039 21.476-185.871a9.704 9.704 0 0 0-7.736-13.485 34.289 34.289 0 0 0-4.13-0.253c-18.132 0-29.42 14.363-38.49 25.904-2.958 3.764-6.141 7.814-9.089 10.638 0.099-1.404 0.216-2.8 0.318-4.004 0.876-10.429 1.782-21.212-4.302-27.829-2.794-3.035-6.696-4.707-10.989-4.707z" fill="#280D0D" p-id="4454"></path><path d="M691.846 463.954c-19.662-80.454-20.717-169.921-0.487-252.829-3.735 3.506-7.643 5.895-12.042 6.125-11.348 0.592 4.764-40.293-9.473-40.18-5.505 0.044-25.081 38.682-40.874 38.682s-10.693-29.388-25.828-27.158c-6.305 0.929-22.538 30.119-35.37 30.119s-13.319-33.946-22.374-32.248c-11.351 2.129-26.633 34.237-37.491 34.237s-10.53-34.584-20.581-33.579c-5.734 0.573-19.412 34.552-28.296 33.565-8.883-0.987-12.503-32.244-19.018-33.283-5.637-0.898-17.503 32.296-28.361 31.309s-7.434-29.081-17.54-30.045c-7.016-0.669-22.122 33.335-31.156 31.361s-12.606-29.12-18.53-29.064c-7.897 0.075-21.611 28.735-31.482 27.748s-12.368-25.387-17.109-25.664c-10.273-0.6-29.172 31.702-36.092 34.675 0.544 153.695 1.616 456.146 1.617 456.723 0.012 3.525 41.621 18.925 45.167 20.537l100.392 45.645c45.036 20.477 101.931 60.855 152.737 60.34 172.234-1.745 160.33-231.88 132.191-347.016z" fill="#FFF6EE" p-id="4455"></path><path d="M211.933 602.385s-68.108-3.457-76.991 109.069c-6.96 88.162 95.606 110.184 190.805 122.838 125.294 16.655 217.406 47.914 318.424-4.973 0 0-115.691 1.907-81.17-117.866 21.984-76.272 60.657-30.067 62.047-45.977 0.468-5.351-12.249-10.185-62.705-18.512-140.501-23.184-350.41-44.579-350.41-44.579z" fill="#FFD96E" p-id="4456"></path><path d="M519.812 863.6c-40.224 0-82.32-6.871-126.889-14.145-21.7-3.542-44.139-7.204-67.816-10.352-45.504-6.048-97.154-14.766-135.221-33.562-20.512-10.129-35.378-22.14-45.447-36.722-11.251-16.29-16.073-35.72-14.334-57.747 8.712-110.365 73.778-113.552 81.169-113.552 0.592 0 0.905 0.019 0.905 0.019 0.073 0.004 0.175 0.011 0.247 0.019 2.101 0.214 211.666 21.675 350.707 44.62 24.98 4.122 41.216 7.466 51.094 10.523 5.312 1.645 16.365 5.066 15.656 13.198-0.441 5.052-3.652 8.067-8.589 8.067-2.322 0-4.847-0.636-7.77-1.371-3.561-0.896-7.597-1.912-11.849-1.912-5.41 0-21.873 0-34.012 42.114-10.107 35.067-7.933 62.548 6.463 81.679 21.937 29.151 64.895 29.992 69.72 29.992l0.248-0.001 0.071-0.001a4.856 4.856 0 0 1 4.706 3.66 4.851 4.851 0 0 1-2.451 5.493c-39.066 20.454-79.297 29.981-126.608 29.981zM211.273 607.228c-6.473 0-63.467 2.936-71.493 104.608-2.973 37.653 14.822 65.458 54.403 85.002 36.803 18.173 87.481 26.699 132.202 32.645 23.819 3.166 46.331 6.84 68.101 10.393 44.169 7.209 85.888 14.018 125.325 14.018 39.358 0 73.606-6.809 106.397-21.292-17.456-2.815-43.543-10.634-59.838-32.288-16.328-21.699-19.031-52.048-8.033-90.202 9.529-33.062 23.705-49.133 43.338-49.133 4.282 0 8.197 0.753 11.571 1.553-7.769-2.537-22.993-6.04-51.694-10.776-137.091-22.622-343.042-43.815-349.949-44.523a6.789 6.789 0 0 0-0.33-0.005z" fill="#280D0D" p-id="4457"></path><path d="M642.677 823.193c-0.927 0.392-1.865 0.773-2.801 1.156h0.002c0.936-0.383 1.873-0.764 2.799-1.156z" fill="#280D0D" p-id="4458"></path><path d="M747.148 642.136c-0.141-0.947-0.292-1.861-0.448-2.757-0.818 30.801-3.549 57.754-8.181 80.398-7.88 38.513-21.574 66.019-40.702 81.755-14.291 11.757-30.778 21.667-49.186 29.68a4.835 4.835 0 0 1-2.21 2.407c-39.066 20.454-79.297 29.981-126.608 29.981-40.224 0-82.32-6.871-126.889-14.145-21.7-3.542-44.139-7.204-67.816-10.352-45.504-6.048-97.154-14.766-135.221-33.562-20.512-10.129-35.378-22.14-45.447-36.722-11.251-16.29-16.073-35.72-14.334-57.747 8.712-110.365 73.778-113.552 81.169-113.552 0.592 0 0.905 0.019 0.905 0.019 0.073 0.004 0.175 0.011 0.247 0.019 0.19 0.019 2.092 0.214 5.482 0.568 0.006-151.598-0.061-402.146-0.062-405.735a9.671 9.671 0 0 1 2.063-5.971c-0.698-0.7-1.41-1.269-2.141-1.666l-19.837 39.288-3.814 348.787s-76.388 35.848-82.954 112.859c-6.084 71.36 13.349 112.167 70.559 138.865s330.864 67.699 391.888 59.117c40.886-5.75 89.629-31.086 116.327-56.256s72.466-82.598 57.21-185.278z" fill="#280D0D" p-id="4459"></path><path d="M645.022 417.083l-0.14-0.002-356.457-10.011a4.854 4.854 0 0 1-4.716-4.988 4.863 4.863 0 0 1 4.988-4.715l356.458 10.011a4.854 4.854 0 0 1-0.133 9.705z" fill="#280D0D" p-id="4460"></path><path d="M317.164 664.173c6.449 0 6.449-10 0-10s-6.449 10 0 10zM292.009 651.963l-84.785-14.649c-6.305-1.089-9.004 8.546-2.658 9.643l84.785 14.649c6.304 1.089 9.003-8.547 2.658-9.643z" fill="#FFFFFF" p-id="4461"></path><path d="M370.358 530.557l-81.798-6.773v-78.406l81.798 2.542z" fill="#3BFFDE" p-id="4462"></path><path d="M370.358 535.41c-0.133 0-0.267-0.006-0.4-0.017l-81.798-6.772a4.854 4.854 0 0 1-4.453-4.837v-78.406c0-1.313 0.532-2.57 1.476-3.484a4.862 4.862 0 0 1 3.528-1.366l81.798 2.542a4.853 4.853 0 0 1 4.703 4.851v82.637a4.854 4.854 0 0 1-4.854 4.852z m-76.944-16.094l72.091 5.969v-72.66l-72.091-2.24v68.931z" fill="#280D0D" p-id="4463"></path><path d="M496.06 479.863l-101.707-3.774v-27.533l101.707 3.655z" fill="#FFD96E" p-id="4464"></path><path d="M496.06 484.716c-0.06 0-0.12-0.001-0.18-0.004l-101.706-3.773a4.854 4.854 0 0 1-4.674-4.85v-27.533c0-1.317 0.536-2.578 1.484-3.493a4.816 4.816 0 0 1 3.543-1.356l101.706 3.655a4.854 4.854 0 0 1 4.68 4.85v27.651a4.856 4.856 0 0 1-4.853 4.853z m-96.853-13.304l91.999 3.414v-17.934l-91.999-3.307v17.827zM542.468 511.416c-0.079 0-0.158-0.002-0.238-0.006l-148.11-7.153a4.853 4.853 0 0 1-4.613-5.082c0.131-2.677 2.407-4.752 5.082-4.613l148.11 7.153a4.853 4.853 0 0 1-0.231 9.701zM185.574 795.149a1761.744 1761.744 0 0 0 61.934 4.785c1.933 0.115 1.922-2.886 0-3a1759.342 1759.342 0 0 1-61.934-4.785c-1.926-0.183-1.908 2.818 0 3z m24.29 11.091c19.886 0.973 39.745 2.371 59.57 4.194 1.927 0.177 1.91-2.824 0-3a1395.303 1395.303 0 0 0-59.57-4.194c-1.935-0.094-1.926 2.906 0 3z m66.732 4.557h6.674c1.935 0 1.935-3 0-3h-6.674c-1.935 0-1.935 3 0 3zM171.24 786.378l31.931 1.648c1.934 0.1 1.925-2.901 0-3l-31.931-1.648c-1.935-0.1-1.925 2.9 0 3z m39.088 1.535h8.581c1.935 0 1.935-3 0-3h-8.581c-1.935 0-1.935 3 0 3z m16.688 0.388c10.198 0.252 20.366 0.912 30.512 1.98 1.923 0.203 1.904-2.8 0-3a381.225 381.225 0 0 0-30.512-1.98c-1.936-0.048-1.931 2.952 0 3z m-68.649-17.655c14.77 0.674 29.548 1.042 44.333 1.104 1.935 0.008 1.934-2.992 0-3-14.785-0.062-29.563-0.43-44.333-1.104-1.935-0.088-1.926 2.912 0 3z m20.972 9.162c1.935 0 1.935-3 0-3s-1.935 3 0 3z m30.991-6.171c3.219-0.201 6.42-0.091 9.61 0.403 1.892 0.293 2.705-2.597 0.798-2.893-3.461-0.536-6.91-0.729-10.407-0.51-1.922 0.12-1.934 3.121-0.001 3z m-66.747-18.141c16.043 0.685 32.095 1.008 48.152 0.969 1.934-0.005 1.935-3.005 0-3-16.057 0.039-32.109-0.284-48.152-0.969-1.935-0.083-1.927 2.917 0 3z m6.18 7.841c9.849 0.779 19.7 1.008 29.574 0.688 1.93-0.063 1.936-3.063 0-3-9.874 0.32-19.726 0.091-29.574-0.688-1.93-0.153-1.915 2.848 0 3z m49.136-7.529l12.389 1.031c1.929 0.161 1.914-2.841 0-3l-12.389-1.031c-1.929-0.161-1.913 2.841 0 3z m-6.688 6.36c1.935 0 1.935-3 0-3-1.934 0-1.934 3 0 3z m-54.332-27.32a282.83 282.83 0 0 0 39.081 1.748c1.931-0.047 1.936-3.047 0-3a282.83 282.83 0 0 1-39.081-1.748c-1.92-0.219-1.899 2.783 0 3z m2.367 7.773h27.652c1.935 0 1.935-3 0-3h-27.652c-1.935 0-1.935 3 0 3z m-4.77-24.254c12.552 0.473 25.106 0.6 37.665 0.382 1.932-0.034 1.936-3.034 0-3-12.559 0.218-25.113 0.09-37.665-0.382-1.936-0.073-1.929 2.928 0 3z m5.724 7.113a183.118 183.118 0 0 1 18.595 0.426c1.931 0.142 1.917-2.859 0-3a183.112 183.112 0 0 0-18.595-0.426c-1.931 0.054-1.936 3.054 0 3z m-0.001-32.441h29.559c1.935 0 1.935-3 0-3h-29.559c-1.934 0-1.934 3 0 3z m-2.38 11.367l23.832 1.082c1.935 0.088 1.926-2.913 0-3l-23.832-1.082c-1.935-0.088-1.927 2.912 0 3z m36.237 0.43l7.627 0.493c1.933 0.125 1.921-2.876 0-3l-7.627-0.493c-1.932-0.125-1.92 2.876 0 3z m2.783-11.802l3.793-0.605c0.809-0.129 1.246-1.124 1.048-1.845-0.235-0.853-1.038-1.176-1.845-1.048l-3.793 0.605c-0.809 0.129-1.246 1.124-1.048 1.845 0.234 0.853 1.038 1.177 1.845 1.048z m-6.128 34.331c1.935 0 1.935-3 0-3s-1.934 3 0 3z m-31.94-51.066l18.113 0.575c1.936 0.061 1.93-2.939 0-3l-18.113-0.575c-1.936-0.061-1.93 2.939 0 3z m-1.433 8.626a53.72 53.72 0 0 1 13.938 1.737c1.874 0.487 2.669-2.406 0.798-2.893a56.924 56.924 0 0 0-14.736-1.844c-1.934 0.012-1.935 3.012 0 3z m10.105-30.176l15.74 2.337c1.892 0.281 2.706-2.609 0.798-2.893l-15.74-2.337c-1.892-0.281-2.706 2.61-0.798 2.893z m-2.951 8.302c4.463-0.213 8.911-0.136 13.364 0.231 1.929 0.159 1.914-2.842 0-3a102.766 102.766 0 0 0-13.364-0.231c-1.925 0.091-1.934 3.092 0 3z m15.262-24.497a119.884 119.884 0 0 1 17.714 2.45c1.886 0.405 2.689-2.486 0.798-2.893a125.372 125.372 0 0 0-18.511-2.557c-1.934-0.122-1.922 2.879-0.001 3z m-6.205 9.686a69.137 69.137 0 0 1 11.444 0.441c1.918 0.233 1.895-2.769 0-3a69.246 69.246 0 0 0-11.444-0.441c-1.927 0.085-1.935 3.085 0 3z m18.592-23.858c3.24-0.01 6.437 0.259 9.624 0.846 1.891 0.348 2.698-2.543 0.798-2.893a56.403 56.403 0 0 0-10.422-0.953c-1.934 0.006-1.935 3.006 0 3z m14.317-9.694l16.213 1.389c1.928 0.165 1.913-2.836 0-3l-16.213-1.389c-1.929-0.165-1.913 2.836 0 3z m4.277 13.037h2.384c1.935 0 1.935-3 0-3h-2.384c-1.935 0-1.935 3 0 3z m-5.172 14.27l1.902 0.495c0.791 0.206 1.626-0.252 1.845-1.048 0.214-0.78-0.257-1.639-1.048-1.845l-1.902-0.495c-0.791-0.206-1.626 0.252-1.845 1.048-0.214 0.78 0.257 1.639 1.048 1.845z m-21.05 28.16c1.935 0 1.935-3 0-3-1.934 0-1.934 3 0 3z m82.002 149.191c9.075 0.198 18.127 0.714 27.166 1.55 1.927 0.178 1.91-2.823 0-3a386.94 386.94 0 0 0-27.166-1.55c-1.936-0.042-1.932 2.958 0 3z m34.325 0.509c1.935 0 1.935-3 0-3s-1.934 3 0 3z" fill="#280D0D" p-id="4465"></path></svg>